# xmcd CD database file
#
# Track frame offsets:
#	150
#	13225
#	20415
#	31206
#	48184
#	60376
#	74360
#	92065
#	111488
#	123570
#	136921
#	151541
#	164498
#	177911
#	196562
#	206785
#	215781
#	229083
#	241771
#	256918
#	269818
#	283105
#	297940
#	309288
#
# Disc length: 4318 seconds
#
# Revision: 0
# Processed by: cddbd v1.5.1PL0 Copyright (c) Steve Scherf et al.
# Submitted via: CDex 1.51
#
DISCID=5c10dc18
DTITLE=Fleetwood Mac - The Golden Era Of Pop Music
DYEAR=1972
DGENRE=Blues
TTITLE0=Black Magic Woman
TTITLE1=Jigsaw Puzzle Blues
TTITLE2=Stop Messin' Round
TTITLE3=Doctor Brown
TTITLE4=Evenin' Boogie
TTITLE5=Albatross
TTITLE6=Need Your Love So Bad
TTITLE7=I've Lost My Baby
TTITLE8=Coming Home
TTITLE9=I Believe My Time Ain't Long
TTITLE10=The Sun Is Shining
TTITLE11=Rollin' Man
TTITLE12=My Heart Beat Like A Hammer
TTITLE13=Merrry Go Round
TTITLE14=Long Grey Mare
TTITLE15=Hellhound On My Train
TTITLE16=Shake Your Moneymaker
TTITLE17=Looking For Somebod
TTITLE18=No Place To Go
TTITLE19=My Baby's Good To Me
TTITLE20=I Loved Another Woman
TTITLE21=Cold Black Night
TTITLE22=The World Keep On Turning
TTITLE23=Got To Move
EXTD=YEAR: 1972
EXTT0=
EXTT1=
EXTT2=
EXTT3=
EXTT4=
EXTT5=
EXTT6=
EXTT7=
EXTT8=
EXTT9=
EXTT10=
EXTT11=
EXTT12=
EXTT13=
EXTT14=
EXTT15=
EXTT16=
EXTT17=
EXTT18=
EXTT19=
EXTT20=
EXTT21=
EXTT22=
EXTT23=
PLAYORDER=
